<?xml version="1.0" encoding="UTF-8"?>
<svg id="_Слой_2" data-name="Слой 2" xmlns="http://www.w3.org/2000/svg" viewBox="0 0 481.59 104.08">
  <defs>
    <style>
      .cls-1 {
        fill: #fff;
      }
    </style>
  </defs>
  <g id="_Слой_1-2" data-name="Слой 1">
    <g>
      <path class="cls-1" d="M398.28,69.2l-2.85,4.1-1.41-1.1,1.55-2.25,.86-.73-.86-.64-1.66-2.2,1.41-1.1,2.95,3.92Zm-3.47,.04l-2.72,3.85-1.28-1,1.46-2.18,.8-.69-.8-.62-1.55-2.14,1.25-1,2.85,3.78Zm-8.82-2.55c-.6,0-1.05,.18-1.34,.54-.29,.36-.46,.85-.52,1.45h3.29c.05-.64-.05-1.13-.29-1.48-.24-.34-.62-.52-1.14-.52m3.3,6.53c-.35,.28-.84,.53-1.45,.72-.61,.2-1.26,.29-1.95,.29-1.44,0-2.49-.42-3.15-1.25-.66-.84-1-1.98-1-3.44,0-1.57,.37-2.74,1.12-3.52,.75-.78,1.8-1.17,3.15-1.17,.45,0,.89,.06,1.32,.18,.43,.12,.81,.31,1.14,.59,.33,.27,.6,.64,.8,1.1,.2,.46,.3,1.04,.3,1.72,0,.25-.02,.52-.04,.8-.03,.29-.08,.58-.13,.89h-5.32c.04,.75,.23,1.31,.57,1.69,.35,.38,.91,.57,1.69,.57,.48,0,.92-.07,1.3-.22s.68-.3,.88-.45l.76,1.51Zm-11.58-2.74h-2.9v3.51h-2.31v-8.9h2.31v3.35h2.9v-3.35h2.31v8.9h-2.31v-3.51Zm-13.08-.94c0,.39,.04,.75,.11,1.08,.07,.33,.18,.62,.32,.87,.14,.25,.33,.44,.56,.58,.23,.14,.51,.2,.83,.2,.61,0,1.05-.22,1.35-.66s.45-1.13,.45-2.08c0-.82-.14-1.48-.41-1.99-.27-.5-.73-.75-1.38-.75-.57,0-1.02,.21-1.33,.64-.32,.43-.48,1.13-.48,2.1m-2.38,0c0-1.51,.37-2.67,1.1-3.48,.74-.81,1.77-1.22,3.1-1.22,.71,0,1.33,.11,1.85,.34,.52,.23,.95,.54,1.3,.95,.35,.41,.6,.9,.77,1.49,.17,.58,.26,1.22,.26,1.92,0,1.51-.37,2.67-1.09,3.48-.73,.81-1.76,1.22-3.09,1.22-.71,0-1.33-.11-1.85-.34-.52-.22-.96-.54-1.31-.95-.35-.41-.61-.9-.78-1.49-.17-.58-.26-1.22-.26-1.92m-5.78-2.74c-.45,0-.81,.11-1.06,.34-.26,.22-.45,.56-.6,1.01v3.7c.16,.13,.35,.23,.54,.31,.2,.08,.45,.12,.77,.12,.67,0,1.16-.24,1.5-.7,.33-.47,.5-1.24,.5-2.32,0-.78-.13-1.39-.39-1.82-.26-.43-.68-.64-1.26-.64m-3.97-1.71h1.69l.27,1.07h.07c.31-.45,.67-.78,1.09-1,.42-.21,.94-.32,1.54-.32,1.11,0,1.95,.35,2.51,1.06s.84,1.84,.84,3.41c0,.76-.09,1.45-.27,2.05-.18,.61-.44,1.13-.79,1.56-.35,.43-.78,.75-1.28,.98-.51,.23-1.08,.34-1.73,.34-.37,0-.67-.03-.91-.08-.24-.05-.47-.14-.71-.26v3.65h-2.31v-12.45Zm-7.95,4.45c0,.39,.03,.75,.11,1.08,.07,.33,.18,.62,.32,.87,.14,.25,.33,.44,.56,.58,.23,.14,.5,.2,.83,.2,.61,0,1.06-.22,1.35-.66,.3-.44,.45-1.13,.45-2.08,0-.82-.14-1.48-.41-1.99-.27-.5-.73-.75-1.39-.75-.57,0-1.02,.21-1.33,.64-.32,.43-.48,1.13-.48,2.1m-2.39,0c0-1.51,.37-2.67,1.1-3.48,.73-.81,1.77-1.22,3.1-1.22,.71,0,1.33,.11,1.85,.34,.52,.23,.95,.54,1.3,.95,.34,.41,.6,.9,.77,1.49,.17,.58,.26,1.22,.26,1.92,0,1.51-.36,2.67-1.09,3.48-.73,.81-1.76,1.22-3.09,1.22-.71,0-1.33-.11-1.85-.34-.52-.22-.96-.54-1.31-.95-.35-.41-.61-.9-.78-1.49-.17-.58-.26-1.22-.26-1.92m-7.62,.11c0,.76,.15,1.39,.45,1.89,.3,.5,.75,.75,1.37,.75s1.1-.23,1.38-.68c.28-.45,.42-1.1,.42-1.96,0-.77-.13-1.36-.39-1.78-.26-.42-.69-.62-1.3-.62-.65,0-1.13,.21-1.45,.64-.31,.43-.47,1.02-.47,1.76m-.44-2.88c.34-.52,.75-.9,1.22-1.13,.47-.23,1.04-.34,1.7-.34,1.08,0,1.93,.33,2.57,.99,.64,.66,.95,1.68,.95,3.07,0,1.6-.36,2.82-1.09,3.65-.72,.83-1.74,1.25-3.06,1.25s-2.43-.46-3.15-1.37c-.72-.91-1.09-2.34-1.09-4.27,0-1.02,.06-1.89,.18-2.62,.12-.72,.29-1.33,.51-1.83,.22-.5,.48-.9,.78-1.19,.3-.3,.64-.53,1.01-.7,.37-.17,.77-.29,1.2-.36,.43-.07,.88-.13,1.35-.18,.62-.06,1.15-.13,1.59-.22,.44-.09,.76-.24,.98-.44l.09,2.05c-.24,.21-.57,.36-1.02,.44-.44,.08-1.03,.15-1.78,.22-.45,.02-.85,.08-1.2,.16-.34,.08-.64,.23-.89,.44-.25,.21-.45,.51-.6,.89-.15,.38-.26,.89-.33,1.51h.05Zm-9.64,2.78c0,.39,.04,.75,.11,1.08,.07,.33,.18,.62,.32,.87,.14,.25,.33,.44,.56,.58,.23,.14,.5,.2,.83,.2,.61,0,1.05-.22,1.35-.66,.3-.44,.44-1.13,.44-2.08,0-.82-.13-1.48-.41-1.99-.27-.5-.73-.75-1.39-.75-.57,0-1.01,.21-1.33,.64-.32,.43-.48,1.13-.48,2.1m-2.39,0c0-1.51,.37-2.67,1.1-3.48,.73-.81,1.77-1.22,3.1-1.22,.71,0,1.33,.11,1.85,.34,.52,.23,.95,.54,1.3,.95,.34,.41,.6,.9,.77,1.49,.17,.58,.26,1.22,.26,1.92,0,1.51-.37,2.67-1.09,3.48-.73,.81-1.76,1.22-3.09,1.22-.71,0-1.33-.11-1.85-.34-.52-.22-.96-.54-1.31-.95-.35-.41-.61-.9-.78-1.49-.17-.58-.26-1.22-.26-1.92m-9.18,.39l.09-1.26h-.05l-.76,1.3-3.17,4.02h-1.46v-8.9h2.31v4.24l-.11,1.21h.07l.73-1.27,3.2-4.18h1.46v8.9h-2.31v-4.06Zm-15.8,.16l.32,1.39h.11l.23-1.41,1.35-4.98h2.38l-2.7,8.02c-.23,.67-.44,1.27-.65,1.82-.21,.55-.44,1.03-.68,1.43-.25,.4-.52,.71-.83,.93-.3,.22-.66,.33-1.08,.33-.62,0-1.11-.1-1.48-.3l.43-1.85c.18,.07,.36,.11,.53,.11,.27,0,.54-.11,.79-.35,.25-.23,.45-.65,.58-1.25l-3.72-8.9h2.78l1.64,5Zm-8.57,1.96v-5h-1.87c-.03,.43-.07,.88-.12,1.36-.06,.48-.13,.95-.22,1.4-.09,.45-.19,.87-.31,1.26-.12,.39-.25,.72-.39,.98h2.92Zm3.61,3.97h-1.69l-.27-2.03h-5.98l-.27,2.03h-1.69v-4.07h1.05c.1-.13,.22-.35,.37-.67,.15-.31,.3-.74,.44-1.29,.15-.55,.28-1.22,.38-2.03,.11-.81,.16-1.76,.16-2.86h6.19v6.85h1.3v4.07Zm-14.36-5.92l.32,1.39h.11l.23-1.41,1.35-4.98h2.38l-2.7,8.02c-.22,.67-.44,1.27-.65,1.82-.21,.55-.44,1.03-.69,1.43-.25,.4-.52,.71-.83,.93-.3,.22-.66,.33-1.08,.33-.62,0-1.11-.1-1.48-.3l.43-1.85c.18,.07,.35,.11,.53,.11,.27,0,.54-.11,.79-.35,.25-.23,.45-.65,.58-1.25l-3.72-8.9h2.78l1.64,5Zm-9.18-3.29c-.45,0-.81,.11-1.06,.34-.26,.22-.45,.56-.6,1.01v3.7c.16,.13,.34,.23,.54,.31,.2,.08,.45,.12,.77,.12,.66,0,1.16-.24,1.5-.7,.33-.47,.5-1.24,.5-2.32,0-.78-.13-1.39-.39-1.82-.26-.43-.68-.64-1.26-.64m-3.97-1.71h1.69l.27,1.07h.07c.31-.45,.67-.78,1.09-1,.42-.21,.94-.32,1.54-.32,1.11,0,1.95,.35,2.51,1.06,.56,.71,.84,1.84,.84,3.41,0,.76-.09,1.45-.27,2.05-.18,.61-.44,1.13-.79,1.56-.35,.43-.78,.75-1.28,.98-.51,.23-1.08,.34-1.73,.34-.37,0-.67-.03-.91-.08-.24-.05-.47-.14-.71-.26v3.65h-2.31v-12.45Zm-1.87,2.05h-2.51v6.85h-2.39v-6.85h-2.51v-2.05h7.4v2.05Zm-16.87,3.16h-.62v3.68h-2.31v-8.89h2.31v3.79l.55-.25,2.08-3.54h2.47l-2.15,3.38-.91,.67,1,.69,2.4,4.15h-2.65l-2.17-3.68Zm-14.38,1.91c.16,.02,.32,.04,.46,.05,.14,.01,.32,.02,.53,.02,.64,0,1.1-.09,1.37-.27,.27-.18,.41-.45,.41-.82,0-.31-.12-.56-.35-.76-.23-.2-.65-.29-1.24-.29h-1.19v2.06Zm1.23-3.49c.38,0,.69-.09,.93-.28,.24-.18,.36-.42,.36-.7,0-.31-.1-.54-.31-.7-.21-.16-.58-.24-1.13-.24-.27,0-.49,0-.65,.02-.16,.01-.31,.02-.44,.04v1.87h1.23Zm-3.49-3.61c.41-.04,.91-.07,1.5-.11,.59-.04,1.22-.05,1.9-.05,1.3,0,2.23,.18,2.78,.56,.55,.37,.83,.94,.83,1.68,0,.42-.12,.82-.36,1.21-.24,.39-.61,.68-1.12,.85v.07c.64,.14,1.1,.39,1.39,.76,.28,.36,.43,.83,.43,1.4,0,.89-.34,1.55-1.02,1.99-.68,.44-1.78,.66-3.28,.66-.5,0-1.03-.02-1.59-.04-.56-.03-1.04-.07-1.46-.12v-8.86Zm-7.86,4.43c0,.39,.03,.75,.11,1.08,.07,.33,.18,.62,.32,.87,.14,.25,.33,.44,.56,.58,.23,.14,.51,.2,.83,.2,.61,0,1.06-.22,1.35-.66,.3-.44,.44-1.13,.44-2.08,0-.82-.13-1.48-.41-1.99-.27-.5-.73-.75-1.39-.75-.57,0-1.01,.21-1.33,.64-.32,.43-.48,1.13-.48,2.1m-2.39,0c0-1.51,.37-2.67,1.1-3.48,.74-.81,1.77-1.22,3.1-1.22,.71,0,1.33,.11,1.85,.34,.52,.23,.95,.54,1.3,.95,.34,.41,.6,.9,.77,1.49,.17,.58,.26,1.22,.26,1.92,0,1.51-.37,2.67-1.09,3.48-.73,.81-1.76,1.22-3.09,1.22-.71,0-1.33-.11-1.85-.34-.52-.22-.96-.54-1.31-.95-.35-.41-.61-.9-.78-1.49-.17-.58-.26-1.22-.26-1.92m-.91-2.4h-2.51v6.85h-2.38v-6.85h-2.51v-2.05h7.4v2.05Zm-14.36,2.4c0,.39,.04,.75,.11,1.08,.07,.33,.18,.62,.32,.87,.14,.25,.33,.44,.56,.58,.23,.14,.51,.2,.83,.2,.61,0,1.06-.22,1.35-.66,.29-.44,.44-1.13,.44-2.08,0-.82-.14-1.48-.41-1.99-.27-.5-.74-.75-1.39-.75-.57,0-1.01,.21-1.33,.64-.32,.43-.48,1.13-.48,2.1m-2.38,0c0-1.51,.37-2.67,1.1-3.48,.74-.81,1.77-1.22,3.09-1.22,.71,0,1.33,.11,1.85,.34,.52,.23,.95,.54,1.3,.95,.35,.41,.6,.9,.77,1.49,.17,.58,.26,1.22,.26,1.92,0,1.51-.37,2.67-1.1,3.48-.73,.81-1.76,1.22-3.09,1.22-.71,0-1.33-.11-1.85-.34-.52-.22-.96-.54-1.31-.95-.35-.41-.61-.9-.78-1.49-.17-.58-.26-1.22-.26-1.92m.55-5.84h-4.8v10.28h-2.44v-12.45h7.24v2.17Zm-13.47,5.63l2.74-3.83,1.26,1-1.44,2.17-.82,.69,.82,.63,1.55,2.16-1.26,1-2.85-3.8Zm-3.45,.04l2.85-4.08,1.41,1.1-1.55,2.23-.85,.73,.85,.64,1.65,2.21-1.41,1.1-2.95-3.94Zm296.6-13.38c-.36,.26-.79,.46-1.29,.6-.5,.14-1.02,.21-1.56,.21-.71,0-1.31-.11-1.81-.34-.49-.23-.89-.54-1.2-.95-.31-.41-.53-.9-.67-1.48-.14-.58-.21-1.22-.21-1.92,0-1.51,.34-2.67,1.01-3.48,.68-.81,1.66-1.22,2.95-1.22,.65,0,1.18,.05,1.57,.16,.4,.11,.75,.25,1.08,.41l-.55,1.89c-.27-.13-.54-.23-.81-.3-.27-.07-.57-.11-.92-.11-.64,0-1.13,.21-1.46,.63-.33,.42-.5,1.09-.5,2.02,0,.38,.04,.73,.12,1.05,.08,.32,.21,.6,.37,.84,.16,.24,.38,.42,.65,.56,.27,.14,.58,.21,.93,.21,.39,0,.72-.05,1-.15,.27-.1,.52-.22,.73-.36l.53,1.76Zm-12.28-3.13h-.62v3.68h-2.31v-8.9h2.31v3.79l.55-.25,2.08-3.54h2.47l-2.15,3.38-.91,.68,1,.69,2.4,4.15h-2.65l-2.17-3.68Zm-8.34-3.61c-.6,0-1.05,.18-1.34,.54-.29,.36-.46,.85-.52,1.45h3.29c.05-.64-.05-1.13-.29-1.48-.24-.34-.62-.52-1.14-.52m3.3,6.53c-.36,.29-.84,.53-1.45,.72-.61,.2-1.26,.29-1.95,.29-1.43,0-2.48-.42-3.15-1.26-.67-.84-1-1.98-1-3.44,0-1.57,.37-2.74,1.12-3.52,.75-.78,1.8-1.18,3.15-1.18,.45,0,.89,.06,1.31,.18,.43,.12,.81,.31,1.14,.59,.33,.27,.6,.64,.8,1.1,.2,.46,.3,1.04,.3,1.72,0,.25-.02,.52-.04,.8-.03,.28-.07,.58-.13,.89h-5.32c.04,.75,.23,1.31,.58,1.69,.35,.38,.91,.57,1.69,.57,.48,0,.92-.07,1.3-.22s.68-.3,.88-.45l.76,1.51Zm-11.83-6.08h-1.76c-.07,.84-.16,1.68-.25,2.51-.09,.83-.25,1.58-.45,2.24-.21,.66-.49,1.19-.85,1.6-.35,.41-.82,.62-1.39,.62-.69,0-1.17-.09-1.46-.26l.28-1.89c.19,.07,.37,.11,.53,.11,.24,0,.45-.1,.62-.3,.18-.2,.33-.57,.45-1.09,.12-.52,.23-1.24,.3-2.14,.08-.9,.14-2.04,.17-3.43h6.1v8.9h-2.31v-6.85Zm-9.57,0h-2.81v6.85h-2.31v-8.9h7.44v8.9h-2.31v-6.85Zm-9.82,2.78l.14-1.85h-.09l-.71,1.53-1.67,2.76h-.84l-1.83-2.76-.68-1.53h-.11l.23,1.83v4.09h-2.06v-8.9h2.4l2.04,3.34,.5,1.12h.07l.51-1.16,1.89-3.31h2.42v8.9h-2.23v-4.07Zm-15.48-.37c0,.39,.04,.75,.11,1.09,.07,.33,.18,.62,.32,.87,.14,.25,.33,.44,.56,.58s.51,.2,.83,.2c.6,0,1.05-.22,1.35-.66,.3-.44,.45-1.13,.45-2.08,0-.82-.14-1.48-.41-1.98-.27-.5-.73-.75-1.38-.75-.57,0-1.02,.21-1.34,.64-.32,.43-.48,1.12-.48,2.1m-2.38,0c0-1.51,.37-2.66,1.1-3.48,.73-.81,1.77-1.22,3.1-1.22,.71,0,1.33,.11,1.85,.34,.52,.23,.96,.54,1.3,.95,.34,.41,.6,.9,.77,1.49,.17,.58,.26,1.22,.26,1.92,0,1.51-.37,2.67-1.09,3.48-.73,.81-1.76,1.22-3.09,1.22-.71,0-1.33-.11-1.85-.34-.52-.23-.96-.54-1.31-.95-.35-.41-.61-.91-.78-1.49-.17-.58-.26-1.22-.26-1.92m-5.2,.76h-.62v3.68h-2.31v-8.9h2.31v3.79l.55-.25,2.08-3.54h2.47l-2.15,3.38-.91,.68,1,.69,2.4,4.15h-2.65l-2.17-3.68Zm-14.55-8.84c.08,.46,.22,.79,.42,.98,.19,.19,.45,.28,.75,.28,.33,0,.6-.09,.79-.28,.2-.19,.33-.51,.4-.96l1.76,.44c-.14,.77-.49,1.34-1.05,1.72-.56,.37-1.21,.56-1.96,.56-.37,0-.72-.04-1.07-.12-.34-.08-.65-.22-.92-.4-.28-.18-.51-.42-.69-.7-.19-.28-.32-.63-.39-1.05l1.96-.46Zm2.47,8.47l.09-1.26h-.05l-.76,1.3-3.17,4.02h-1.46v-8.9h2.31v4.24l-.11,1.21h.07l.73-1.26,3.2-4.18h1.46v8.9h-2.31v-4.06Zm-10.14-4.84h2.31v8.89h-2.31v-8.89Zm-5.85,6.96c.36,.07,.69,.11,1.02,.11,.53,0,.91-.1,1.12-.29,.22-.19,.32-.5,.32-.92,0-.38-.11-.67-.32-.86-.21-.19-.57-.29-1.07-.29-.39,0-.75,.04-1.07,.12v2.13Zm0-3.79c.29-.05,.57-.08,.86-.1,.29-.02,.55-.03,.79-.03,.61,0,1.11,.07,1.51,.2,.41,.14,.73,.33,.98,.58,.25,.25,.43,.54,.53,.88,.11,.34,.16,.7,.16,1.09,0,.53-.07,1-.22,1.41-.14,.4-.37,.74-.69,1.01-.32,.27-.73,.47-1.24,.61-.51,.14-1.14,.2-1.89,.2-.68,0-1.26-.01-1.75-.04-.49-.02-.95-.05-1.36-.09v-8.9h2.31v3.17Zm-7.08,2.23h-2.9v3.5h-2.31v-8.9h2.31v3.34h2.9v-3.34h2.31v8.9h-2.31v-3.5Zm-11.87,1.72c.16,.03,.32,.04,.46,.06,.14,.01,.32,.02,.53,.02,.64,0,1.1-.09,1.37-.27,.27-.18,.41-.45,.41-.82,0-.31-.12-.56-.35-.76-.23-.2-.64-.29-1.24-.29h-1.19v2.06Zm1.23-3.49c.38,0,.69-.09,.93-.28,.24-.18,.36-.42,.36-.7,0-.31-.1-.54-.31-.7-.21-.16-.58-.24-1.13-.24-.27,0-.49,0-.65,.02-.16,.01-.31,.02-.44,.04v1.87h1.23Zm-3.49-3.61c.42-.03,.92-.07,1.5-.11,.59-.04,1.22-.05,1.9-.05,1.31,0,2.23,.18,2.79,.56,.55,.37,.83,.94,.83,1.68,0,.42-.12,.82-.36,1.21-.24,.39-.61,.68-1.12,.86v.07c.64,.14,1.1,.39,1.39,.76,.28,.36,.43,.83,.43,1.4,0,.89-.34,1.55-1.02,1.99-.68,.44-1.78,.66-3.28,.66-.5,0-1.03-.02-1.59-.05-.56-.03-1.04-.07-1.46-.12v-8.86Zm-4.66,4.82l.09-1.26h-.05l-.76,1.3-3.17,4.02h-1.46v-8.9h2.31v4.24l-.11,1.21h.07l.73-1.26,3.2-4.18h1.46v8.9h-2.31v-4.06Zm-7.05-2.79h-2.51v6.85h-2.38v-6.85h-2.51v-2.05h7.4v2.05Zm-12.61-.34c-.45,0-.81,.11-1.06,.34-.26,.22-.45,.56-.6,1.02v3.7c.16,.13,.35,.23,.54,.31,.2,.08,.46,.12,.77,.12,.66,0,1.16-.24,1.5-.7,.33-.47,.5-1.24,.5-2.32,0-.78-.13-1.39-.39-1.82-.26-.43-.68-.64-1.26-.64m-3.97-1.71h1.69l.27,1.07h.07c.31-.45,.67-.78,1.09-1,.42-.22,.93-.32,1.54-.32,1.12,0,1.95,.35,2.51,1.06,.56,.71,.84,1.84,.84,3.41,0,.76-.09,1.45-.27,2.06-.18,.61-.44,1.13-.79,1.56-.35,.43-.78,.75-1.28,.98-.5,.23-1.08,.34-1.73,.34-.37,0-.67-.03-.91-.08-.24-.06-.47-.14-.71-.26v3.65h-2.31v-12.45Zm-7.77,4.45c0,.39,.04,.75,.11,1.09,.07,.33,.18,.62,.32,.87,.14,.25,.33,.44,.56,.58,.23,.14,.51,.2,.83,.2,.61,0,1.06-.22,1.35-.66,.3-.44,.45-1.13,.45-2.08,0-.82-.14-1.48-.41-1.98-.27-.5-.73-.75-1.39-.75-.57,0-1.01,.21-1.33,.64-.32,.43-.48,1.12-.48,2.1m-2.38,0c0-1.51,.37-2.66,1.1-3.48,.73-.81,1.77-1.22,3.09-1.22,.71,0,1.33,.11,1.85,.34,.52,.23,.95,.54,1.3,.95,.35,.41,.6,.9,.77,1.49,.17,.58,.26,1.22,.26,1.92,0,1.51-.37,2.67-1.1,3.48-.73,.81-1.76,1.22-3.09,1.22-.71,0-1.33-.11-1.85-.34-.52-.23-.96-.54-1.31-.95-.35-.41-.61-.91-.78-1.49-.17-.58-.26-1.22-.26-1.92m-4.22-2.4h-2.81v6.85h-2.31v-8.9h7.44v8.9h-2.32v-6.85Zm-6.73,6.3c-.35,.26-.78,.46-1.29,.6-.5,.14-1.02,.21-1.56,.21-.71,0-1.31-.11-1.81-.34-.49-.23-.89-.54-1.2-.95-.31-.41-.53-.9-.67-1.48-.14-.58-.21-1.22-.21-1.92,0-1.51,.34-2.67,1.01-3.48,.68-.81,1.66-1.22,2.95-1.22,.65,0,1.18,.05,1.57,.16,.4,.11,.75,.25,1.08,.41l-.55,1.89c-.27-.13-.54-.23-.81-.3-.27-.07-.57-.11-.92-.11-.64,0-1.13,.21-1.46,.63-.33,.42-.5,1.09-.5,2.02,0,.38,.04,.73,.12,1.05,.08,.32,.21,.6,.37,.84s.38,.42,.65,.56c.27,.14,.58,.21,.93,.21,.39,0,.72-.05,1-.15,.27-.1,.52-.22,.73-.36l.53,1.76Zm-13.2-5.59h4.47v2.05h-4.47v-2.05Zm-7.99,1.69c0,.39,.04,.75,.11,1.09,.07,.33,.18,.62,.32,.87,.14,.25,.33,.44,.56,.58s.51,.2,.83,.2c.61,0,1.06-.22,1.35-.66,.3-.44,.45-1.13,.45-2.08,0-.82-.14-1.48-.41-1.98-.27-.5-.73-.75-1.39-.75-.57,0-1.01,.21-1.33,.64-.32,.43-.48,1.12-.48,2.1m-2.38,0c0-1.51,.37-2.66,1.1-3.48,.73-.81,1.77-1.22,3.09-1.22,.71,0,1.33,.11,1.85,.34,.52,.23,.96,.54,1.3,.95,.34,.41,.6,.9,.77,1.49,.17,.58,.26,1.22,.26,1.92,0,1.51-.37,2.67-1.1,3.48-.73,.81-1.76,1.22-3.09,1.22-.71,0-1.33-.11-1.85-.34-.52-.23-.96-.54-1.31-.95-.35-.41-.61-.91-.78-1.49-.17-.58-.26-1.22-.26-1.92m-4.16,.94h-2.9v3.5h-2.31v-8.9h2.31v3.34h2.9v-3.34h2.31v8.9h-2.31v-3.5Zm-10.8-3.68c-.45,0-.81,.11-1.06,.34-.26,.22-.45,.56-.59,1.02v3.7c.16,.13,.34,.23,.54,.31,.2,.08,.45,.12,.77,.12,.66,0,1.16-.24,1.49-.7,.33-.47,.5-1.24,.5-2.32,0-.78-.13-1.39-.39-1.82-.26-.43-.68-.64-1.26-.64m-3.97-1.71h1.69l.27,1.07h.07c.31-.45,.67-.78,1.09-1,.42-.22,.93-.32,1.54-.32,1.11,0,1.95,.35,2.51,1.06,.56,.71,.84,1.84,.84,3.41,0,.76-.09,1.45-.27,2.06-.18,.61-.44,1.13-.79,1.56-.35,.43-.78,.75-1.28,.98-.5,.23-1.08,.34-1.73,.34-.37,0-.67-.03-.91-.08-.24-.06-.47-.14-.71-.26v3.65h-2.31v-12.45Zm-5.96,5l.32,1.39h.11l.23-1.41,1.35-4.98h2.38l-2.7,8.02c-.22,.66-.44,1.27-.65,1.82-.21,.55-.44,1.03-.69,1.43-.25,.4-.52,.71-.83,.93-.3,.22-.66,.33-1.08,.33-.62,0-1.11-.1-1.48-.3l.43-1.85c.18,.07,.35,.11,.53,.11,.27,0,.54-.11,.79-.35,.25-.23,.45-.65,.58-1.25l-3.72-8.9h2.78l1.64,5Zm-4.93-2.95h-2.51v6.85h-2.39v-6.85h-2.51v-2.05h7.4v2.05Zm-12.03,4.91c.35,.07,.69,.11,1.01,.11,.57,0,.98-.1,1.24-.29,.26-.19,.38-.5,.38-.92,0-.77-.52-1.15-1.57-1.15-.39,0-.75,.04-1.07,.12v2.13Zm0-3.79c.28-.05,.57-.08,.86-.1,.29-.02,.55-.03,.79-.03,.62,0,1.14,.07,1.57,.2,.43,.14,.77,.33,1.04,.58,.27,.25,.46,.54,.58,.88,.12,.34,.18,.7,.18,1.09,0,1.08-.32,1.89-.96,2.42-.64,.53-1.73,.8-3.26,.8-.68,0-1.26-.01-1.75-.04-.49-.02-.94-.05-1.36-.09v-8.9h2.31v3.17Zm-7.14-1.12h-1.76c-.07,.84-.16,1.68-.25,2.51-.09,.83-.25,1.58-.45,2.24-.21,.66-.49,1.19-.85,1.6-.35,.41-.82,.62-1.39,.62-.69,0-1.17-.09-1.46-.26l.28-1.89c.19,.07,.37,.11,.53,.11,.24,0,.45-.1,.62-.3,.18-.2,.33-.57,.45-1.09,.12-.52,.22-1.24,.3-2.14,.08-.9,.13-2.04,.17-3.43h6.1v8.9h-2.31v-6.85Zm-10.44,2.95l.32,1.39h.11l.23-1.41,1.35-4.98h2.38l-2.7,8.02c-.22,.66-.44,1.27-.65,1.82-.21,.55-.43,1.03-.68,1.43-.25,.4-.52,.71-.83,.93-.3,.22-.66,.33-1.08,.33-.62,0-1.11-.1-1.48-.3l.43-1.85c.18,.07,.35,.11,.53,.11,.27,0,.54-.11,.79-.35,.25-.23,.45-.65,.58-1.25l-3.72-8.9h2.78l1.64,5Zm-9.48,.21h-.62v3.68h-2.31v-8.9h2.31v3.79l.55-.25,2.08-3.54h2.47l-2.15,3.38-.91,.68,1,.69,2.4,4.15h-2.65l-2.17-3.68Zm-9.75,0v-1.62h1.09c.41,0,.76-.08,1.02-.25,.27-.17,.4-.38,.4-.66,0-.32-.12-.55-.35-.68-.24-.14-.6-.21-1.08-.21s-.87,.06-1.23,.18c-.35,.12-.64,.24-.85,.37l-.5-1.76c.36-.2,.83-.38,1.42-.52,.59-.15,1.21-.22,1.88-.22,1.02,0,1.78,.19,2.29,.57,.51,.38,.76,.93,.76,1.65,0,.2-.03,.41-.08,.61-.05,.21-.14,.41-.26,.6-.12,.19-.26,.36-.44,.51-.17,.15-.38,.26-.61,.35v.07c.63,.14,1.07,.39,1.33,.76,.26,.36,.39,.85,.39,1.45,0,.38-.08,.73-.23,1.06-.16,.33-.39,.61-.7,.85s-.71,.43-1.18,.57c-.48,.14-1.04,.22-1.69,.22s-1.22-.07-1.7-.21c-.48-.13-.88-.29-1.2-.47l.5-1.8c.27,.15,.6,.28,.98,.37,.39,.1,.82,.14,1.29,.14,1.08,0,1.62-.34,1.62-1.03,0-.31-.14-.53-.42-.68-.28-.14-.8-.21-1.56-.21h-.87Zm-5.59-.37l.09-1.26h-.05l-.76,1.3-3.17,4.02h-1.46v-8.9h2.31v4.24l-.11,1.21h.07l.73-1.26,3.2-4.18h1.46v8.9h-2.31v-4.06Zm-11.09-3.19c-.12,0-.22,.01-.31,.03-.09,.02-.19,.04-.32,.06v5.52c.09,.02,.2,.04,.32,.04,.12,0,.26,.01,.39,.01,.56,0,.97-.24,1.24-.7,.26-.47,.39-1.25,.39-2.34,0-.92-.13-1.59-.38-2-.26-.41-.7-.62-1.33-.62m-3.46,5.66c.13,0,.25-.01,.36-.03,.11-.02,.23-.04,.36-.06v-5.5c-.23-.05-.46-.07-.69-.07-.55,0-.96,.21-1.26,.63-.29,.42-.44,1.14-.44,2.16,0,.93,.13,1.63,.4,2.13,.27,.49,.68,.74,1.26,.74m.62,1.69c-.2,.07-.41,.11-.63,.12-.22,.01-.42,.02-.6,.02-1.08,0-1.91-.38-2.49-1.16-.58-.77-.87-1.95-.87-3.54s.32-2.67,.96-3.45c.64-.78,1.57-1.17,2.78-1.17,.33,0,.62,.02,.85,.07v-3.45h2.31v3.47c.21-.04,.4-.06,.56-.07,.16-.01,.32-.02,.48-.02,1.16,0,2.04,.35,2.63,1.04,.59,.69,.88,1.83,.88,3.41,0,.75-.08,1.42-.24,2.02-.16,.6-.39,1.11-.7,1.54-.31,.43-.68,.75-1.12,.98-.44,.23-.95,.34-1.53,.34-.11,0-.26-.01-.47-.03-.21-.02-.37-.05-.5-.1v3.43h-2.31v-3.45Zm109.78-30.08c.08,.46,.22,.79,.42,.98,.19,.19,.45,.29,.76,.29,.33,0,.6-.09,.79-.29,.2-.19,.33-.51,.4-.96l1.76,.44c-.14,.77-.49,1.34-1.05,1.72-.56,.37-1.21,.56-1.96,.56-.37,0-.72-.04-1.07-.12-.34-.08-.65-.22-.93-.4-.27-.18-.51-.42-.69-.7-.19-.29-.32-.64-.39-1.05l1.96-.46Zm2.47,8.47l.09-1.26h-.05l-.76,1.3-3.17,4.02h-1.46v-8.9h2.31v4.24l-.11,1.21h.07l.73-1.26,3.2-4.18h1.46v8.9h-2.31v-4.06Zm-10.02,0l.09-1.26h-.05l-.76,1.3-3.17,4.02h-1.46v-8.9h2.31v4.24l-.11,1.21h.07l.73-1.26,3.2-4.18h1.46v8.9h-2.31v-4.06Zm-11.6,.37h-.62v3.68h-2.31v-8.9h2.31v3.79l.55-.25,2.08-3.54h2.47l-2.15,3.38-.91,.68,1,.69,2.4,4.15h-2.65l-2.17-3.68Zm-4.39,3.13c-.36,.26-.79,.46-1.29,.6-.5,.14-1.02,.21-1.56,.21-.71,0-1.31-.11-1.81-.34-.49-.23-.89-.54-1.2-.95-.31-.41-.53-.9-.67-1.48-.14-.58-.21-1.22-.21-1.92,0-1.51,.34-2.67,1.01-3.48,.68-.81,1.66-1.22,2.95-1.22,.65,0,1.18,.05,1.57,.16,.4,.11,.76,.25,1.08,.41l-.55,1.89c-.27-.13-.54-.23-.81-.3-.27-.07-.57-.11-.92-.11-.64,0-1.13,.21-1.46,.63-.33,.42-.5,1.09-.5,2.02,0,.38,.04,.73,.12,1.05,.08,.32,.21,.6,.37,.84,.16,.24,.38,.43,.65,.56,.27,.14,.58,.21,.93,.21,.39,0,.72-.05,1-.15,.27-.1,.52-.22,.73-.36l.53,1.76Zm-13.43-11.98c.08,.46,.22,.79,.42,.98,.19,.19,.45,.29,.76,.29,.33,0,.6-.09,.79-.29,.2-.19,.33-.51,.4-.96l1.76,.44c-.14,.77-.49,1.34-1.05,1.72-.56,.37-1.21,.56-1.96,.56-.37,0-.72-.04-1.07-.12-.34-.08-.65-.22-.92-.4-.27-.18-.51-.42-.69-.7-.19-.29-.32-.64-.39-1.05l1.96-.46Zm2.47,8.47l.09-1.26h-.06l-.76,1.3-3.17,4.02h-1.46v-8.9h2.31v4.24l-.11,1.21h.07l.73-1.26,3.2-4.18h1.46v8.9h-2.31v-4.06Zm-10.02,0l.09-1.26h-.05l-.76,1.3-3.17,4.02h-1.46v-8.9h2.31v4.24l-.11,1.21h.07l.73-1.26,3.2-4.18h1.46v8.9h-2.31v-4.06Zm-6.82,3.51c-.35,.26-.79,.46-1.29,.6-.5,.14-1.02,.21-1.56,.21-.71,0-1.31-.11-1.81-.34-.49-.23-.89-.54-1.2-.95-.31-.41-.53-.9-.67-1.48-.14-.58-.21-1.22-.21-1.92,0-1.51,.34-2.67,1.02-3.48,.68-.81,1.66-1.22,2.95-1.22,.65,0,1.18,.05,1.57,.16,.4,.11,.76,.25,1.08,.41l-.55,1.89c-.27-.13-.54-.23-.81-.3-.27-.07-.57-.11-.91-.11-.64,0-1.13,.21-1.46,.63-.33,.42-.5,1.09-.5,2.02,0,.38,.04,.73,.12,1.05,.08,.32,.21,.6,.37,.84,.16,.24,.38,.43,.65,.56,.27,.14,.58,.21,.93,.21,.39,0,.72-.05,1-.15,.27-.1,.52-.22,.73-.36l.53,1.76Zm-7.76,0c-.35,.26-.79,.46-1.29,.6-.5,.14-1.02,.21-1.56,.21-.71,0-1.31-.11-1.81-.34-.49-.23-.89-.54-1.2-.95-.31-.41-.53-.9-.67-1.48-.14-.58-.21-1.22-.21-1.92,0-1.51,.34-2.67,1.01-3.48,.68-.81,1.66-1.22,2.95-1.22,.65,0,1.18,.05,1.57,.16,.39,.11,.75,.25,1.07,.41l-.55,1.89c-.27-.13-.54-.23-.81-.3-.27-.07-.57-.11-.92-.11-.64,0-1.13,.21-1.46,.63-.33,.42-.5,1.09-.5,2.02,0,.38,.04,.73,.12,1.05,.08,.32,.21,.6,.37,.84,.16,.24,.38,.43,.65,.56,.27,.14,.58,.21,.93,.21,.39,0,.72-.05,1-.15,.27-.1,.52-.22,.73-.36l.53,1.76Zm-14.43-3.9c0,.39,.04,.75,.11,1.08,.07,.33,.18,.63,.32,.87,.14,.25,.33,.44,.56,.58,.23,.13,.5,.2,.83,.2,.61,0,1.06-.22,1.35-.66,.3-.44,.44-1.13,.44-2.08,0-.82-.13-1.48-.41-1.99-.27-.5-.73-.75-1.39-.75-.57,0-1.01,.21-1.33,.64-.32,.43-.48,1.13-.48,2.1m-2.39,0c0-1.51,.37-2.67,1.1-3.48,.73-.81,1.77-1.22,3.09-1.22,.71,0,1.33,.11,1.85,.34,.52,.23,.95,.54,1.3,.95,.34,.41,.6,.9,.77,1.49,.17,.58,.26,1.22,.26,1.92,0,1.51-.36,2.67-1.09,3.48-.73,.81-1.76,1.22-3.09,1.22-.71,0-1.33-.11-1.85-.34-.52-.23-.96-.54-1.31-.95-.35-.41-.61-.9-.78-1.49-.17-.58-.26-1.22-.26-1.92m-5.78-2.74c-.45,0-.81,.11-1.06,.34-.26,.23-.45,.56-.6,1.02v3.7c.16,.13,.35,.23,.54,.31,.2,.08,.45,.12,.77,.12,.66,0,1.16-.24,1.49-.7,.33-.47,.5-1.24,.5-2.32,0-.78-.13-1.39-.39-1.81-.26-.43-.68-.64-1.26-.64m-3.97-1.71h1.69l.27,1.07h.07c.31-.45,.67-.78,1.09-1,.42-.21,.93-.32,1.54-.32,1.11,0,1.95,.35,2.51,1.06,.56,.71,.84,1.84,.84,3.41,0,.76-.09,1.45-.27,2.06-.18,.61-.44,1.13-.79,1.56-.35,.43-.78,.75-1.28,.98-.5,.23-1.08,.34-1.73,.34-.37,0-.67-.03-.91-.08-.24-.05-.47-.14-.71-.26v3.65h-2.31v-12.45Zm-5.67,1.6c-.6,0-1.05,.18-1.34,.54-.29,.36-.46,.85-.52,1.45h3.29c.05-.64-.05-1.13-.29-1.48-.24-.34-.62-.52-1.14-.52m3.3,6.53c-.35,.29-.84,.53-1.45,.72-.61,.2-1.26,.3-1.95,.3-1.44,0-2.48-.42-3.15-1.26-.66-.84-1-1.98-1-3.44,0-1.57,.37-2.74,1.12-3.52,.75-.78,1.8-1.17,3.15-1.17,.45,0,.89,.06,1.32,.18,.43,.12,.8,.31,1.14,.59,.33,.27,.6,.64,.8,1.1,.2,.46,.3,1.04,.3,1.72,0,.25-.01,.52-.05,.8-.03,.29-.07,.58-.13,.89h-5.32c.03,.75,.23,1.31,.57,1.69,.35,.38,.91,.57,1.69,.57,.48,0,.92-.07,1.3-.22,.38-.15,.68-.3,.88-.45l.76,1.51Zm-8.75,.22c-.35,.26-.79,.46-1.29,.6-.5,.14-1.02,.21-1.56,.21-.71,0-1.31-.11-1.81-.34-.49-.23-.89-.54-1.2-.95-.31-.41-.53-.9-.67-1.48-.14-.58-.21-1.22-.21-1.92,0-1.51,.34-2.67,1.01-3.48,.68-.81,1.66-1.22,2.95-1.22,.65,0,1.18,.05,1.57,.16,.4,.11,.75,.25,1.08,.41l-.55,1.89c-.27-.13-.54-.23-.81-.3-.27-.07-.57-.11-.92-.11-.64,0-1.13,.21-1.46,.63-.33,.42-.5,1.09-.5,2.02,0,.38,.04,.73,.12,1.05,.08,.32,.21,.6,.37,.84,.16,.24,.38,.43,.65,.56,.27,.14,.58,.21,.93,.21,.39,0,.72-.05,1-.15,.27-.1,.52-.22,.73-.36l.53,1.76Zm-13.09-1.32c.29,0,.57-.04,.85-.11,.27-.07,.52-.18,.72-.33,.21-.15,.38-.33,.51-.55,.13-.22,.19-.49,.19-.79,0-.39-.08-.69-.23-.92-.15-.22-.35-.39-.59-.52-.25-.12-.52-.2-.82-.24-.3-.03-.61-.05-.91-.05h-1.27v3.4c.06,.02,.15,.04,.28,.05,.13,.01,.26,.02,.41,.03,.15,0,.3,.01,.46,.02,.16,0,.29,0,.41,0m-.77-5.36c.17,0,.36,0,.58-.02,.22-.01,.4-.03,.54-.05,.45-.14,.84-.35,1.17-.63,.33-.28,.49-.65,.49-1.11,0-.3-.06-.56-.18-.76-.12-.2-.28-.36-.47-.47-.19-.12-.42-.2-.67-.25-.25-.05-.51-.07-.78-.07-.31,0-.6,0-.86,.02-.26,.01-.46,.03-.6,.05v3.29h.78Zm5.21-2.33c0,.31-.04,.62-.12,.93-.08,.31-.2,.59-.38,.84-.18,.26-.41,.48-.69,.68-.28,.2-.63,.34-1.02,.44v.11c.35,.06,.69,.16,1.01,.3,.32,.14,.6,.34,.83,.59,.24,.25,.42,.55,.56,.91,.13,.35,.2,.78,.2,1.26,0,.64-.13,1.2-.41,1.66-.27,.47-.64,.85-1.09,1.15-.46,.3-.97,.52-1.56,.66-.58,.14-1.18,.21-1.8,.21h-.77c-.32,0-.65,0-1.02-.03-.36-.02-.73-.05-1.1-.08-.37-.03-.71-.09-1.02-.16v-12.28c.23-.04,.48-.07,.77-.11,.29-.04,.6-.06,.93-.09,.33-.02,.67-.04,1.02-.05,.35-.01,.7-.02,1.04-.02,.58,0,1.15,.05,1.7,.13,.55,.09,1.04,.25,1.48,.47,.43,.23,.78,.54,1.04,.94,.26,.41,.39,.91,.39,1.53"/>
      <path class="cls-1" d="M156.48,74.69c0,14.92-12.35,27.06-27.54,27.06h-3.55c-15.18,0-27.54-12.14-27.54-27.06V26.45h2.32v48.24c0,13.7,11.31,24.84,25.22,24.84h3.55c13.91,0,25.22-11.14,25.22-24.84V29.26c0-13.7-11.31-24.84-25.22-24.84H45.27V2.18s83.67,.02,83.67,.02c15.18,0,27.54,12.14,27.54,27.06v45.43ZM102.35,26.45h2.31v48.24c0,11.26,9.3,20.42,20.73,20.42h3.55c11.43,0,20.73-9.16,20.73-20.42V29.26c0-11.26-9.3-20.42-20.73-20.42l-83.67,.04v-2.28s83.67,.02,83.67,.02c12.71,0,23.04,10.16,23.04,22.64v45.43c0,12.48-10.34,22.64-23.04,22.64h-3.55c-12.71,0-23.04-10.16-23.04-22.64V26.45Zm4.49,0h2.31v48.24c0,8.82,7.28,16,16.24,16h3.55c8.95,0,16.24-7.18,16.24-16V29.26c0-8.82-7.28-16-16.24-16H45.28s0-2.2,0-2.2l83.67-.02c10.23,0,18.55,8.17,18.55,18.22v45.43c0,10.05-8.32,18.22-18.55,18.22h-3.55c-10.23,0-18.55-8.17-18.55-18.22V26.45Zm4.49,0h2.32v48.22c0,6.4,5.27,11.6,11.75,11.6h3.55c6.48,0,11.75-5.2,11.75-11.6V29.19c0-6.4-5.27-11.6-11.75-11.6l-83.66,.02v-2.19s83.66,.03,83.66,.03c7.75,0,14.06,6.19,14.06,13.8v45.43c0,7.61-6.31,13.8-14.06,13.8h-3.55c-7.75,0-14.06-6.19-14.06-13.8V26.45Zm-36.09,75.45h-2.19V19.79h2.19V101.9Zm-4.37,0h-2.19V19.79h2.19V101.9Zm-4.37,0h-2.19V19.79h2.19V101.9Zm-4.37,0h-2.19V19.79h2.19V101.9ZM128.94,0H43.09l.03,19.79h14.66s0,84.29,0,84.29h19.65V19.79s51.53,0,51.53,0c5.28,0,9.57,4.22,9.57,9.4v45.49c0,5.18-4.29,9.4-9.57,9.4h-3.55c-5.28,0-9.57-4.22-9.57-9.4V24.28h-20.14v50.41c0,16.13,13.33,29.26,29.71,29.26h3.55c16.38,0,29.71-13.12,29.71-29.26V29.26c0-16.13-13.33-29.26-29.71-29.26M15.28,101.78V15.38h21.24v2.22H17.47V101.78h-2.19ZM2.18,2.18H36.51v2.22H4.37V101.78H2.18V2.18Zm34.34,6.62H8.73V101.78h-2.19V6.58h29.97v2.22Zm0,4.4H13.1V101.78h-2.19V10.98h25.6v2.22Zm2.17,6.59V0H0V103.95H19.64v-2.18l-.02-81.98h19.06Z"/>
    </g>
  </g>
</svg>