<?xml version="1.0" encoding="UTF-8"?>
<svg id="_Слой_2" data-name="Слой 2" xmlns="http://www.w3.org/2000/svg" viewBox="0 0 158.66 104.08">
  <defs>
    <style>
      .cls-1 {
        fill: #fff;
      }
    </style>
  </defs>
  <g id="_Слой_1-2" data-name="Слой 1">
    <path class="cls-1" d="M156.48,74.69c0,14.92-12.35,27.06-27.54,27.06h-3.55c-15.18,0-27.54-12.14-27.54-27.06V26.45h2.32v48.24c0,13.7,11.31,24.84,25.22,24.84h3.55c13.91,0,25.22-11.14,25.22-24.84V29.26c0-13.7-11.31-24.84-25.22-24.84H45.27V2.18s83.67,.02,83.67,.02c15.18,0,27.54,12.14,27.54,27.06v45.43ZM102.35,26.45h2.31v48.24c0,11.26,9.3,20.42,20.73,20.42h3.55c11.43,0,20.73-9.16,20.73-20.42V29.26c0-11.26-9.3-20.42-20.73-20.42l-83.67,.04v-2.28s83.67,.02,83.67,.02c12.71,0,23.04,10.16,23.04,22.64v45.43c0,12.48-10.34,22.64-23.04,22.64h-3.55c-12.71,0-23.04-10.16-23.04-22.64V26.45Zm4.49,0h2.31v48.24c0,8.82,7.28,16,16.24,16h3.55c8.95,0,16.24-7.18,16.24-16V29.26c0-8.82-7.28-16-16.24-16H45.28s0-2.2,0-2.2l83.67-.02c10.23,0,18.55,8.17,18.55,18.22v45.43c0,10.05-8.32,18.22-18.55,18.22h-3.55c-10.23,0-18.55-8.17-18.55-18.22V26.45Zm4.49,0h2.32v48.22c0,6.4,5.27,11.6,11.75,11.6h3.55c6.48,0,11.75-5.2,11.75-11.6V29.19c0-6.4-5.27-11.6-11.75-11.6l-83.66,.02v-2.19s83.66,.03,83.66,.03c7.75,0,14.06,6.19,14.06,13.8v45.43c0,7.61-6.31,13.8-14.06,13.8h-3.55c-7.75,0-14.06-6.19-14.06-13.8V26.45Zm-36.09,75.45h-2.19V19.79h2.19V101.9Zm-4.37,0h-2.19V19.79h2.19V101.9Zm-4.37,0h-2.19V19.79h2.19V101.9Zm-4.37,0h-2.19V19.79h2.19V101.9ZM128.94,0H43.09l.03,19.79h14.66s0,84.29,0,84.29h19.65V19.79s51.53,0,51.53,0c5.28,0,9.57,4.22,9.57,9.4v45.49c0,5.18-4.29,9.4-9.57,9.4h-3.55c-5.28,0-9.57-4.22-9.57-9.4V24.28h-20.14v50.41c0,16.13,13.33,29.26,29.71,29.26h3.55c16.38,0,29.71-13.12,29.71-29.26V29.26c0-16.13-13.33-29.26-29.71-29.26M15.28,101.78V15.38h21.24v2.22H17.47V101.78h-2.19ZM2.18,2.18H36.51v2.22H4.37V101.78H2.18V2.18Zm34.34,6.62H8.73V101.78h-2.19V6.58h29.97v2.22Zm0,4.4H13.1V101.78h-2.19V10.98h25.6v2.22Zm2.17,6.59V0H0V103.95H19.64v-2.18l-.02-81.98h19.06Z"/>
  </g>
</svg>